<?xml version="1.0" encoding="UTF-8" standalone="no"?>
<!DOCTYPE svg PUBLIC "-//W3C//DTD SVG 1.1//EN" "http://www.w3.org/Graphics/SVG/1.1/DTD/svg11.dtd">
<svg width="100%" height="100%" viewBox="0 0 1080 1920" version="1.1" xmlns="http://www.w3.org/2000/svg" xmlns:xlink="http://www.w3.org/1999/xlink" xml:space="preserve" xmlns:serif="http://www.serif.com/" style="fill-rule:evenodd;clip-rule:evenodd;stroke-linejoin:round;stroke-miterlimit:2;">
    <path d="M531.979,38.199L531.978,38.199L531.979,38.369C531.968,40.881 531.959,51.91 531.954,70.193C531.898,275.395 532.002,1401.33 532.026,1635.92C532.029,1661.99 532.03,1677.05 532.031,1678.62L532.031,1678.89L532.042,1684.31L532.043,1684.36C532.278,1746.65 536.162,1775.52 540.044,1774.32C544.04,1775.52 548.032,1744.94 548.03,1678.91L548.031,1678.64L548.031,1678.62C548.03,1677.05 548.029,1661.99 548.026,1635.92C548.002,1401.33 547.898,275.398 547.954,70.198L547.972,38.68L547.979,38.347C547.977,37.912 547.967,37.679 547.965,37.645C547.827,35.02 546.753,33.805 546.615,33.6C545.311,31.661 543.703,30.854 542.4,30.439C540.475,29.827 538.546,29.912 536.621,30.801C535.823,31.169 532.91,32.335 532.113,36.591C532.091,36.708 532.001,37.115 531.979,37.824L531.979,38.199Z" style="fill:white;"/>
    <g transform="matrix(1,0,0,1.05548,-0.478428,-6.149)">
        <ellipse cx="540.384" cy="97.578" rx="15.828" ry="14.673" style="fill:white;"/>
    </g>
    <g transform="matrix(1,0,0,1.05548,-0.54295,327.507)">
        <ellipse cx="540.384" cy="97.578" rx="15.828" ry="14.673" style="fill:white;"/>
    </g>
    <g transform="matrix(1,0,0,1.05548,-0.416563,702.538)">
        <ellipse cx="540.384" cy="97.578" rx="15.828" ry="14.673" style="fill:white;"/>
    </g>
    <g transform="matrix(1,0,0,1.05548,-0.290176,1077.57)">
        <ellipse cx="540.384" cy="97.578" rx="15.828" ry="14.673" style="fill:white;"/>
    </g>
    <g transform="matrix(1,0,0,1.05548,-0.163789,1452.6)">
        <ellipse cx="540.384" cy="97.578" rx="15.828" ry="14.673" style="fill:white;"/>
    </g>
</svg>
